# xmcd
#
# Track frame offsets: 
#        150
#        10686
#        21988
#        34909
#        52085
#        65609
#        76975
#        90116
#        104554
#        117161
#        131103
#        144726
#        158478
#        169106
#        179781
#        195387
#        214984
#        225663
#        236815
#        247436
#        257977
#        269103
#        281616
#        291480
#
# Disc length: 4062 seconds
#
# Revision: 1
# Processed by: cddbd v1.5.2PL0 Copyright (c) Steve Scherf et al.
# Submitted via: ExactAudioCopy v1.1
#
DISCID=770fdc18
DTITLE=Various Artist - Preachin' The Blues - Cyril Davies Memorial A
DTITLE=lbum - Disc 2
DYEAR=2014
DGENRE=Blues
TTITLE0=Alexis Korner's Blues Incorporated - She Fooled Me (mono)
TTITLE1=Alexis Korner's Blues Incorporated - Gotta Move (mono)
TTITLE2=Alexis Korner's Blues Incorporated - Rain Is Such A Lonesome S
TTITLE2=ound (mono)
TTITLE3=Alexis Korner's Blues Incorporated - I Got My Brand On You (mo
TTITLE3=no)
TTITLE4=Alexis Korner's Blues Incorporated - Spooky But Nice (mono)
TTITLE5=Alexis Korner's Blues Incorporated - Keep Your Hands Off (mono
TTITLE5=)
TTITLE6=Alexis Korner's Blues Incorporated - I Wanna Put A Tiger In Yo
TTITLE6=ur Tank (mono)
TTITLE7=Alexis Korner's Blues Incorporated - I Got My Mojo Working (mo
TTITLE7=no)
TTITLE8=Alexis Korner's Blues Incorporated - Finkle's Cafe (mono)
TTITLE9=Alexis Korner's Blues Incorporated - Hoochie Coochie (mono)
TTITLE10=Alexis Korner's Blues Incorporated - Down Town (mono)
TTITLE11=Alexis Korner's Blues Incorporated - How Long, How Long Blues
TTITLE11=(mono)
TTITLE12=Alexis Korner's Blues Incorporated - I Thought I Heard That T
TTITLE12=rain Whistle Blow (mono)
TTITLE13=Alexis Korner's Blues Incorporated - I'm Built For Comfort (m
TTITLE13=ono)
TTITLE14=Alexis Korner's Blues Incorporated - I'm A Hoochie Coochie Ma
TTITLE14=n (BBC 07-62) (mono)
TTITLE15=Alexis Korner's Blues Incorporated - Night Time Is The Right 
TTITLE15=Time (BBC 07-62) (mono)
TTITLE16=Alexis Korner's Blues Incorporated - Everything She Needs (BB
TTITLE16=C 07-62) (mono)
TTITLE17=Alexis Korner's Blues Incorporated - Up-Town (mono)
TTITLE18=Nancy Spain with Alexis Korner and His Band - Blaydon Races (mo
TTITLE18=no)
TTITLE19=Cyril Davies R&B All-Stars - Country Line Special (mono)
TTITLE20=Cyril Davies R&B All-Stars - Chicago Calling (mono)
TTITLE21=Cyril Davies and Nicky Hopkins - Someday Baby (mono)
TTITLE22=Cyril Davies R&B All-Stars - Preachin' The Blues (mono)
TTITLE23=Cyril Davies R&B All-Stars - Sweet Mary (mono)
EXTD=
EXTT0=
EXTT1=
EXTT2=
EXTT3=
EXTT4=
EXTT5=
EXTT6=
EXTT7=
EXTT8=
EXTT9=
EXTT10=
EXTT11=
EXTT12=
EXTT13=
EXTT14=
EXTT15=
EXTT16=
EXTT17=
EXTT18=
EXTT19=
EXTT20=
EXTT21=
EXTT22=
EXTT23=
PLAYORDER=
